HIERARCHY
ROOT Hips
{
	OFFSET 0.000000 0.000000 0.000000
	CHANNELS 6 Xposition Yposition Zposition Zrotation Yrotation Xrotation 
	JOINT LeftUpLeg_virtual
	{
		OFFSET 0.000000 0.000000 0.000000
		CHANNELS 3 Zrotation Yrotation Xrotation
		JOINT LeftUpLeg
		{
			OFFSET 10.205400 -3.823500 0.155100
			CHANNELS 3 Zrotation Yrotation Xrotation
			JOINT LeftLeg
			{
				OFFSET 0.708757 -12.982077 0.567790
				CHANNELS 3 Zrotation Yrotation Xrotation
				JOINT LeftFoot
				{
					OFFSET -0.708756 -10.717838 -2.184338
					CHANNELS 3 Zrotation Yrotation Xrotation
					JOINT LeftToeBase
					{
						OFFSET 0.108149 -7.191104 7.560241
						CHANNELS 3 Zrotation Yrotation Xrotation
						End Site
						{
							OFFSET 0.000000 0.000000 0.000000
						}
					}
				}
			}
		}
	}
	JOINT RightUpLeg_virtual
	{
		OFFSET 0.000000 0.000000 0.000000
		CHANNELS 3 Zrotation Yrotation Xrotation
		JOINT RightUpLeg
		{
			OFFSET -10.205400 -3.823500 0.005500
			CHANNELS 3 Zrotation Yrotation Xrotation
			JOINT RightLeg
			{
				OFFSET -0.708756 -12.982134 0.610632
				CHANNELS 3 Zrotation Yrotation Xrotation
				JOINT RightFoot
				{
					OFFSET 0.708754 -10.717769 -1.945823
					CHANNELS 3 Zrotation Yrotation Xrotation
					JOINT RightToeBase
					{
						OFFSET -0.108140 -7.191069 7.372968
						CHANNELS 3 Zrotation Yrotation Xrotation
						End Site
						{
							OFFSET 0.000000 0.000000 0.000000
						}
					}
				}
			}
		}
	}
	JOINT Spine_virtual
	{
		OFFSET 0.000000 0.000000 0.000000
		CHANNELS 3 Zrotation Yrotation Xrotation
		JOINT Spine
		{
			OFFSET 0.000000 6.876099 0.125700
			CHANNELS 3 Zrotation Yrotation Xrotation
			JOINT Spine1
			{
				OFFSET 0.000000 8.022060 0.146608
				CHANNELS 3 Zrotation Yrotation Xrotation
				JOINT Spine2
				{
					OFFSET 0.000000 9.168068 0.167552
					CHANNELS 3 Zrotation Yrotation Xrotation
					JOINT Neck_virtual
					{
						OFFSET 0.000000 0.000000 0.000000
						CHANNELS 3 Zrotation Yrotation Xrotation
						JOINT Neck
						{
							OFFSET 0.000000 10.314075 0.188496
							CHANNELS 3 Zrotation Yrotation Xrotation
							JOINT Head
							{
								OFFSET 0.000000 7.643700 -2.377400
								CHANNELS 3 Zrotation Yrotation Xrotation
								End Site
								{
									OFFSET 0.000000 0.000000 0.000000
								}
							}
						}
					}
					JOINT LeftShoulder_virtual
					{
						OFFSET 0.000000 0.000000 0.000000
						CHANNELS 3 Zrotation Yrotation Xrotation
						JOINT LeftShoulder
						{
							OFFSET 4.392200 8.824978 0.174984
							CHANNELS 3 Zrotation Yrotation Xrotation
							JOINT LeftArm
							{
								OFFSET 8.771219 -2.981674 -0.026999
								CHANNELS 3 Zrotation Yrotation Xrotation
								JOINT LeftForeArm
								{
									OFFSET 8.512804 0.000000 -0.000000
									CHANNELS 3 Zrotation Yrotation Xrotation
									JOINT LeftHand
									{
										OFFSET 18.484802 0.000000 -0.000000
										CHANNELS 3 Zrotation Yrotation Xrotation
										End Site
										{
											OFFSET 0.000000 0.000000 0.000000
										}
									}
								}
							}
						}
					}
					JOINT RightShoulder_virtual
					{
						OFFSET 0.000000 0.000000 0.000000
						CHANNELS 3 Zrotation Yrotation Xrotation
						JOINT RightShoulder
						{
							OFFSET -4.392200 8.824993 0.141379
							CHANNELS 3 Zrotation Yrotation Xrotation
							JOINT RightArm
							{
								OFFSET -8.771282 -2.981682 -0.094208
								CHANNELS 3 Zrotation Yrotation Xrotation
								JOINT RightForeArm
								{
									OFFSET -8.494598 0.000000 0.000000
									CHANNELS 3 Zrotation Yrotation Xrotation
									JOINT RightHand
									{
										OFFSET -18.483803 0.000000 0.000001
										CHANNELS 3 Zrotation Yrotation Xrotation
										End Site
										{
											OFFSET 0.000000 0.000000 0.000000
										}
									}
								}
							}
						}
					}
				}
			}
		}
	}
}
MOTION
Frames: 10
Frame Time: 0.033333
18.829184 35.978241 -9.023651 -179.876857 -22.539126 -179.843279 -0.930337 -1.387438 13.842656 0.278025 -10.005519 -14.153728 7.417967 8.013286 13.542799 0.020976 2.973596 8.513517 0.000000 0.000000 0.000000 4.056758 0.356533 13.454256 1.276342 14.859932 -10.801677 -7.573635 6.378153 13.829276 9.932730 5.542741 3.269551 0.000000 0.000000 0.000000 1.316086 2.235965 -2.634388 3.504897 -3.203997 -17.525326 0.255491 -2.499068 10.975139 -0.021293 0.069404 0.028283 0.027845 0.020642 13.316971 0.676303 2.878851 20.220925 0.000000 0.000000 0.000000 1.719689 0.371482 10.034286 -10.873976 -10.553317 1.616901 -39.982421 -5.463012 -6.680751 -51.954322 -87.688270 61.824700 0.000000 0.000000 0.000000 -2.974548 2.108916 8.993746 18.820291 13.342438 -0.414204 53.727262 -8.407147 7.367740 -167.472031 75.287796 -171.665822 0.000000 0.000000 0.000000 
18.831402 35.977398 -8.984739 -179.882471 -23.004866 -179.856475 -0.923758 -1.608047 13.998348 0.357868 -10.109685 -14.375197 7.342653 7.891245 13.264943 0.093688 2.920281 8.530142 0.000000 0.000000 0.000000 4.031467 0.076393 13.645689 1.161357 14.716069 -11.011476 -7.476774 6.044037 13.751782 10.015152 5.690042 3.313033 0.000000 0.000000 0.000000 1.345556 2.096422 -2.340390 3.494951 -2.909715 -17.458491 0.329738 -2.339724 10.989359 -0.009606 0.074039 0.030032 0.154124 0.163020 13.178119 1.767076 2.229742 19.797609 0.000000 0.000000 0.000000 1.797457 0.531051 9.983386 -11.613518 -10.124179 1.896647 -43.095717 -1.639785 -6.639533 -136.250608 -86.875505 147.812301 0.000000 0.000000 0.000000 -2.964242 2.284607 8.792060 18.738201 12.312195 -0.419214 55.090428 -7.534944 3.875431 -166.373136 75.054258 -170.723283 0.000000 0.000000 0.000000 
18.824337 35.977917 -8.929494 -179.924272 -23.529254 -179.965895 -0.987199 -1.842775 14.159102 0.400234 -10.287131 -14.537009 7.186217 7.620340 13.009158 0.335851 2.936137 8.615184 0.000000 0.000000 0.000000 3.932040 -0.344733 13.833444 1.045572 14.618920 -11.145666 -7.402120 5.839067 13.672791 10.143208 5.743719 3.412564 0.000000 0.000000 0.000000 1.365349 1.890888 -1.975126 3.433807 -2.656704 -17.258700 0.354187 -2.186553 10.904650 -0.033966 0.035816 0.009259 0.229446 0.255223 13.111258 2.700496 1.460359 19.371018 0.000000 0.000000 0.000000 1.863125 0.654609 9.952370 -12.191783 -9.602256 2.187904 -46.017337 2.008235 -6.798460 -154.490533 -84.788609 167.519077 0.000000 0.000000 0.000000 -2.942561 2.436700 8.771641 18.666212 11.335699 -0.377591 56.410075 -7.241753 0.397498 -164.443143 74.983026 -168.989986 0.000000 0.000000 0.000000 
18.810387 35.975712 -8.870712 -179.906063 -24.081478 179.979460 -0.936793 -2.108004 14.252799 0.402960 -10.520517 -14.718764 7.072210 7.481895 12.840681 0.444169 3.052591 8.690413 0.000000 0.000000 0.000000 3.960706 -0.756158 13.944418 0.876145 14.365247 -11.294546 -7.309563 5.759496 13.662637 10.268960 5.836172 3.349780 0.000000 0.000000 0.000000 1.427737 1.671489 -1.699065 3.373229 -2.348894 -17.026763 0.358984 -2.096497 10.885754 -0.024714 0.013945 0.030408 0.253717 0.364823 13.045718 3.475674 1.014673 18.956777 0.000000 0.000000 0.000000 1.876414 0.803195 9.944165 -12.544497 -9.092977 2.417782 -48.523248 5.085942 -7.182350 -159.746718 -83.579413 174.257769 0.000000 0.000000 0.000000 -2.947713 2.557265 8.718699 18.597953 10.359007 -0.349726 57.606143 -7.371279 -3.123853 -162.552656 75.033262 -167.319253 0.000000 0.000000 0.000000 
18.797777 35.969471 -8.816920 -179.943711 -24.659392 179.938151 -0.893850 -2.336291 14.323538 0.340544 -10.764247 -14.921979 7.123085 7.402408 12.716237 0.633430 2.876181 8.829824 0.000000 0.000000 0.000000 3.924795 -1.128130 14.064292 0.759924 14.223811 -11.446472 -7.196077 5.690098 13.685227 10.322155 5.857347 3.379872 0.000000 0.000000 0.000000 1.462700 1.519190 -1.445755 3.272452 -2.078111 -16.765447 0.328257 -2.021749 10.868145 -0.025131 0.035545 0.004335 0.210608 0.471993 13.048036 4.063087 0.488939 18.536975 0.000000 0.000000 0.000000 1.856292 0.858535 9.945407 -12.647820 -8.685870 2.549005 -50.541498 7.546877 -7.674465 -161.411194 -83.047034 177.283038 0.000000 0.000000 0.000000 -2.982958 2.589362 8.764888 18.488289 9.498356 -0.372969 58.551995 -7.635587 -6.342844 -160.410107 75.251759 -165.410557 0.000000 0.000000 0.000000 
18.797573 35.960781 -8.764655 -179.971578 -25.357023 179.793009 -0.836627 -2.547234 14.443444 0.353009 -11.101291 -15.125030 7.022449 7.201957 12.593131 0.818176 2.834023 9.018876 0.000000 0.000000 0.000000 3.860660 -1.524915 14.257684 0.752587 14.037323 -11.554838 -7.094325 5.554305 13.702707 10.345159 5.771858 3.388578 0.000000 0.000000 0.000000 1.490677 1.337795 -1.093320 3.162579 -1.874292 -16.480080 0.281762 -1.960551 10.840046 -0.009912 0.037363 0.024226 0.174840 0.515881 12.925891 4.505828 0.086511 18.150599 0.000000 0.000000 0.000000 1.829497 0.887685 9.858095 -12.494176 -8.355720 2.580358 -51.914205 9.195336 -8.169968 -161.992457 -82.902261 179.076427 0.000000 0.000000 0.000000 -3.034269 2.638062 8.649583 18.307299 8.885885 -0.140604 59.151733 -7.638812 -9.255216 -158.428246 75.399988 -163.613589 0.000000 0.000000 0.000000 
18.808064 35.957050 -8.722905 -179.938356 -26.017640 179.853880 -0.748457 -2.673172 14.513549 0.423827 -11.318630 -15.462365 7.114211 7.238602 12.536465 0.696635 2.687525 9.015623 0.000000 0.000000 0.000000 3.971454 -1.650935 14.382555 0.658919 13.583619 -11.798669 -6.992023 5.336273 13.835590 10.339901 5.800624 3.296727 0.000000 0.000000 0.000000 1.565051 1.214641 -0.890422 3.135191 -1.662849 -16.285261 0.166279 -1.905137 10.729672 -0.054040 0.045782 -0.018301 0.185079 0.604577 12.905818 4.760503 -0.419813 17.706471 0.000000 0.000000 0.000000 1.871436 0.922230 9.865212 -12.195215 -8.032407 2.611735 -52.727168 10.086705 -8.683104 -162.713233 -82.859572 -179.219424 0.000000 0.000000 0.000000 -3.003203 2.706318 8.683640 18.013663 8.566935 -0.007020 59.361686 -7.690173 -11.309097 -156.662765 75.532207 -162.004943 0.000000 0.000000 0.000000 
18.824450 35.955975 -8.695597 -179.984787 -26.883724 179.827830 -0.743319 -2.919749 14.638111 0.494796 -11.588006 -15.767866 7.166431 7.153312 12.409048 0.551754 2.522105 9.238521 0.000000 0.000000 0.000000 3.964156 -2.012616 14.588017 0.694298 13.068251 -11.995475 -6.870195 4.994426 13.846909 10.383897 5.785135 3.355576 0.000000 0.000000 0.000000 1.540180 0.984722 -0.641500 3.002999 -1.551491 -16.055760 0.184921 -1.924400 10.638352 -0.013424 0.007427 -0.004391 -0.017330 0.387578 12.804716 4.926870 -0.759083 17.414843 0.000000 0.000000 0.000000 1.776493 0.900238 9.729675 -11.861796 -7.799323 2.669253 -53.109833 10.491941 -9.268627 -162.882567 -82.803305 -178.269536 0.000000 0.000000 0.000000 -3.122399 2.732394 8.552793 17.730669 8.442671 0.109306 59.368271 -7.797799 -12.656922 -155.639152 75.634564 -161.102005 0.000000 0.000000 0.000000 
18.835794 35.960979 -8.677600 -179.947918 -27.557544 179.831969 -0.717149 -2.976347 14.718130 0.788568 -12.009511 -16.137469 7.173965 7.343330 12.370289 0.377224 2.359450 9.280758 0.000000 0.000000 0.000000 4.075883 -2.096527 14.713353 0.531811 12.639870 -12.189966 -6.617866 4.648906 13.989350 10.316634 5.677523 3.291653 0.000000 0.000000 0.000000 1.589219 0.834053 -0.468138 2.989090 -1.395792 -15.859486 0.164661 -1.872592 10.506819 0.001326 0.037534 -0.018895 -0.063282 0.605949 12.733888 4.970995 -1.075303 17.137766 0.000000 0.000000 0.000000 1.711341 0.932171 9.716154 -11.591974 -7.549641 2.581964 -53.230413 10.829548 -9.684684 -163.718145 -82.808899 -176.823899 0.000000 0.000000 0.000000 -3.211283 2.735654 8.459030 17.443673 8.441502 0.411287 59.280523 -7.960660 -13.430653 -154.568192 75.665362 -160.115945 0.000000 0.000000 0.000000 
18.836559 35.965469 -8.675894 -179.958327 -28.368182 179.871679 -0.699757 -3.223288 14.738864 0.987028 -12.372874 -16.402826 7.121183 7.295633 12.297081 0.338409 2.313089 9.471352 0.000000 0.000000 0.000000 4.121560 -2.398201 14.800935 0.525684 11.958965 -12.295326 -6.405143 4.386034 14.052421 10.356584 5.712409 3.327879 0.000000 0.000000 0.000000 1.609310 0.646779 -0.389593 3.000333 -1.334722 -15.652347 0.135041 -1.869471 10.356437 -0.011833 0.020851 -0.016326 -0.092412 0.603652 12.665902 4.952620 -1.361813 16.969059 0.000000 0.000000 0.000000 1.676705 0.886719 9.591975 -11.459930 -7.290744 2.712940 -53.429667 11.158899 -10.250377 -164.800047 -82.765978 -175.302980 0.000000 0.000000 0.000000 -3.255560 2.748154 8.373180 17.237473 8.474830 0.630900 59.293904 -8.323782 -13.822875 -153.950961 75.800961 -159.538698 0.000000 0.000000 0.000000 
